<svg id="Layer_1" data-name="Layer 1" xmlns="http://www.w3.org/2000/svg" viewBox="0 0 83 140" width="150px" height=" 150px"><defs><style>.cls-1{fill:#c4c6c8;}.cls-2{fill:#bdbdbd;}</style></defs><title>Key</title><path d="M105.13,17.09c1,1.56,2,3.07,2.85,4.66A33.49,33.49,0,0,1,94.87,67.52a2.2,2.2,0,0,0-1.31,2.25q.06,28,0,56a7.3,7.3,0,0,1-.85,3.19c-2.17,4.12-4.5,8.15-6.69,12.25a3.51,3.51,0,0,1-3.68,2.23c-2.7-.18-5.42,0-8.13-.06a2.4,2.4,0,0,1-1.5-.34c-3.83-3.75-7.6-7.55-11.52-11.47L69,123.72,61.2,115.9l8-8-8-8L69.07,92c-2-2-3.84-3.91-5.76-5.73a3.45,3.45,0,0,1-1.2-2.82c.07-4.88,0-9.76,0-14.65A2.06,2.06,0,0,0,61,66.72a33.54,33.54,0,0,1-9.14-48.9,3.18,3.18,0,0,0,.29-.73l5.29-5.29a6.23,6.23,0,0,0,.86-.42C68.56,4,79.64,2.5,91.38,7.1c3,1.17,5.64,3.11,8.45,4.7ZM99.25,58.65a29.07,29.07,0,1,0-41.08.12A29,29,0,0,0,99.25,58.65ZM84.16,134.51l.27.1c1.28-2.3,2.62-4.58,3.8-6.94a7.28,7.28,0,0,0,.8-3q.06-26.37,0-52.75c0-.53,0-1.06,0-1.76a34.51,34.51,0,0,1-22.41-.56c0,3.32.24,6.43,0,9.49a7.5,7.5,0,0,0,2.88,7c2.12,1.74,3.93,3.85,6,5.93L67.57,100l8,8-8,8,7.87,7.87-7.85,7.84a52.09,52.09,0,0,1,5,5.1c1.87,2.51,4.25,2.26,7,2,0-18.46,0-36.84,0-55l4.59-.33C84.18,100.57,84.17,117.54,84.16,134.51Z" transform="translate(-45.04 -4.48)"/><path class="cls-1" d="M99.25,58.65A29.07,29.07,0,1,1,99,17.33,29,29,0,0,1,99.25,58.65Zm-26.19-23a10.08,10.08,0,1,0,.13-14.28A10.05,10.05,0,0,0,73.06,35.69Z" transform="translate(-45.04 -4.48)"/><path class="cls-2" d="M84.16,134.51c0-17,0-33.94,0-51.09l-4.59.33c0,18.14,0,36.52,0,55-2.72.24-5.1.49-7-2a52.09,52.09,0,0,0-5-5.1l7.85-7.84-7.87-7.87,8-8-8-8L75.5,92c-2.08-2.08-3.89-4.19-6-5.93a7.5,7.5,0,0,1-2.88-7c.24-3.06,0-6.17,0-9.49A34.51,34.51,0,0,0,89,70.11c0,.7,0,1.23,0,1.76q0,26.37,0,52.75a7.28,7.28,0,0,1-.8,3c-1.18,2.36-2.52,4.64-3.8,6.94Z" transform="translate(-45.04 -4.48)"/><path d="M73.06,35.69a10.08,10.08,0,1,1,14.28.1A10,10,0,0,1,73.06,35.69Zm3.19-3.21a5.45,5.45,0,0,0,7.84.15,5.55,5.55,0,1,0-7.71-8A5.44,5.44,0,0,0,76.25,32.48Z" transform="translate(-45.04 -4.48)"/><path class="cls-2" d="M76.25,32.48a5.44,5.44,0,0,1,.13-7.84,5.55,5.55,0,1,1,7.71,8A5.45,5.45,0,0,1,76.25,32.48Z" transform="translate(-45.04 -4.48)"/></svg>