<?xml version="1.0" encoding="utf-8"?>
<!-- Generator: Adobe Illustrator 22.1.0, SVG Export Plug-In . SVG Version: 6.00 Build 0)  -->
<svg version="1.1" id="Layer_1" xmlns="http://www.w3.org/2000/svg" xmlns:xlink="http://www.w3.org/1999/xlink" x="0px" y="0px"
	 viewBox="0 0 50 100" width="150px" height=" 150px" style="enable-background:new 0 0 50 100;" xml:space="preserve">
<style type="text/css">
	.st0{fill:#BCBCBC;stroke:#000000;stroke-miterlimit:10;}
</style>
<rect x="13.7" y="69.1" class="st0" width="24.4" height="24.9"/>
<path class="st0" d="M25.9,98.4L25.9,98.4c-1.5,0-2.7-1.2-2.7-2.7V25.1c0-1.5,1.2-2.7,2.7-2.7h0c1.5,0,2.7,1.2,2.7,2.7v70.6
	C28.6,97.2,27.4,98.4,25.9,98.4z"/>
<path class="st0" d="M37.3,2.1H14.7c-1.7,0-3,1.3-3,3v18c0,1.7,1.3,3,3,3h22.6c1.7,0,3-1.3,3-3v-18C40.3,3.5,39,2.1,37.3,2.1z
	 M25.9,9.8c-1.3,0-2.3-1-2.3-2.3s1-2.3,2.3-2.3s2.3,1,2.3,2.3S27.2,9.8,25.9,9.8z"/>
<polygon class="st0" points="19.9,94 18.4,94 18.4,69 19.9,69 "/>
</svg>
